<?xml version="1.0" encoding="UTF-8" standalone="no"?>
<svg
   xmlns:dc="http://purl.org/dc/elements/1.1/"
   xmlns:cc="http://creativecommons.org/ns#"
   xmlns:rdf="http://www.w3.org/1999/02/22-rdf-syntax-ns#"
   xmlns:svg="http://www.w3.org/2000/svg"
   xmlns="http://www.w3.org/2000/svg"
   xmlns:sodipodi="http://sodipodi.sourceforge.net/DTD/sodipodi-0.dtd"
   xmlns:inkscape="http://www.inkscape.org/namespaces/inkscape"
   version="1.0"
   width="72.000000pt"
   height="72.000000pt"
   viewBox="0 0 72.000000 72.000000"
   preserveAspectRatio="xMidYMid meet"
   id="svg2"
   inkscape:version="0.48.2 r9819"
   sodipodi:docname="icon.svg">
  <defs
     id="defs20" />
  <sodipodi:namedview
     pagecolor="#ffffff"
     bordercolor="#666666"
     borderopacity="1"
     objecttolerance="10"
     gridtolerance="10"
     guidetolerance="10"
     inkscape:pageopacity="0"
     inkscape:pageshadow="2"
     inkscape:window-width="1572"
     inkscape:window-height="926"
     id="namedview18"
     showgrid="false"
     inkscape:zoom="14.833529"
     inkscape:cx="56.700819"
     inkscape:cy="77.305753"
     inkscape:window-x="0"
     inkscape:window-y="0"
     inkscape:window-maximized="0"
     inkscape:current-layer="svg2"
     showguides="true"
     inkscape:guide-bbox="true" />
  <metadata
     id="metadata4">
Created by potrace 1.10, written by Peter Selinger 2001-2011
<rdf:RDF>
  <cc:Work
     rdf:about="">
    <dc:format>image/svg+xml</dc:format>
    <dc:type
       rdf:resource="http://purl.org/dc/dcmitype/StillImage" />
  </cc:Work>
</rdf:RDF>
</metadata>
  <g
     transform="matrix(0.070312,0,0,-0.070312,0,72)"
     id="g6"
     style="fill:#000000;stroke:none">
    <path
       d="m 38.71875,0 0,0.625 c 0.358225,2.4933937 5.074435,3.2264938 4.125,6.75 0,2.460925 0.10545,2.2871125 -2.53125,2.375 -2.238269,0.289079 -3.549482,-1.4800996 -4.84375,-2.96875 -0.35156,-0.79101 -1.04688,-1.14453 -1.75,-0.96875 -0.43945,0.08789 -0.69922,0.33594 -0.875,0.6875 -0.17575,0.35156 -0.1875,0.4453499 -0.1875,5.71875 0,4.921841 0.01172,5.27344 0.1875,5.625 0.35156,0.8789 1.04298,1.150388 2.625,1.0625 1.14257,-0.08789 1.58594,-0.25977 1.9375,-0.875 0.17575,-0.43945 0.1875,-0.6211 0.1875,-1.5 0.08789,-1.14257 0.0918,-1.33008 0.53125,-1.59375 0.26367,-0.175775 0.42384,-0.15625 2.09375,-0.15625 2.02147,0 2.29883,0.06055 2.5625,0.5 0.08789,0.26367 0.0625,0.81643 0.0625,4.15625 0,3.427711 0.02539,3.86133 -0.0625,4.125 -0.35156,0.527375 0.0019,0.53125 -8.875,0.53125 -5.800741,0 -8.19922,-0.02539 -8.375,0.0625 -0.79101,0.26367 -1.23242,1.17188 -0.96875,1.875 0.35156,0.70312 0.70509,0.86133 2.375,1.125 12.140691,0.264152 5.127533,0.185512 17.96875,0.1875 0.504392,2e-6 0.903211,1.8e-5 1.5,0 0.02102,0 0.04109,0 0.0625,0 14.64904,-0.0014 16.819041,-0.02024 17.90625,-0.1875 1.66991,-0.26367 2.02344,-0.42188 2.375,-1.125 0.26367,-0.70312 -0.17774,-1.61133 -0.96875,-1.875 -0.17578,-0.08789 -2.574259,-0.0625 -8.375,-0.0625 -8.87689,0 -8.52344,-0.0039 -8.875,-0.53125 -0.08789,-0.26367 -0.0625,-0.697289 -0.0625,-4.125 0,-3.33982 -0.02539,-3.89258 0.0625,-4.15625 0.26367,-0.43945 0.54103,-0.5 2.5625,-0.5 1.66991,0 1.83008,-0.01953 2.09375,0.15625 0.43945,0.26367 0.44336,0.45118 0.53125,1.59375 0,0.8789 0.01172,1.06055 0.1875,1.5 0.35156,0.61523 0.79493,0.78711 1.9375,0.875 1.58202,0.08789 2.27344,-0.1836 2.625,-1.0625 0.17578,-0.35156 0.1875,-0.703159 0.1875,-5.625 0,-5.2734002 -0.01172,-5.36719 -0.1875,-5.71875 C 58.29297,6.14844 58.0332,5.90039 57.59375,5.8125 56.89063,5.63672 56.19531,5.99024 55.84375,6.78125 54.194876,8.7368083 53.466842,9.75 51,9.75 48.3633,9.66211 48.46875,9.835921 48.46875,7.375 c -0.949435,-3.5235068 3.766776,-4.2566071 4.125,-6.75 l 0,-0.625 c -4.604273,0 -9.728494,0 -13.875,0 z m -28.125,28.8125 0,4.96875 0,5.53125 0.375,0 c 0.43945,0 0.94922,0.27344 1.125,0.625 0.610443,6.660874 9.940537,17.825738 13.125,25.125 14.291294,0 26.272282,0 40.875,0 3.184462,-7.299263 12.514556,-18.464126 13.125,-25.125 0.17578,-0.35156 0.68555,-0.625 1.125,-0.625 l 0.375,0 0,-5.53125 0,-4.96875 -34.3125,0 -1.5,0 z m 15.21875,37.71875 -0.34375,0.25 c -0.52734,0.17578 -0.880863,0.62305 -0.96875,1.0625 -0.08789,0.52734 -0.11328,2.11719 0.0625,2.46875 0.08789,0.43945 0.7168,0.974613 1.15625,1.0625 6.845024,0.168867 13.075797,0.147049 19.1875,0.09375 0.492281,0.0048 1.00613,-0.0043 1.5,0 6.111703,0.0533 12.342476,0.07511 19.1875,-0.09375 0.43945,-0.08789 1.06836,-0.62305 1.15625,-1.0625 0.17578,-0.35156 0.15039,-1.94141 0.0625,-2.46875 -0.08789,-0.43945 -0.44141,-0.88672 -0.96875,-1.0625 l -0.34375,-0.25 -19.09375,0 -1.5,0 z m 19.03125,6.4375 c -10.350276,0.0041 -21.10146,0.0203 -21.3125,0.0625 -0.52734,0.17578 -0.974613,0.69727 -1.0625,1.3125 -0.08789,0.61523 -0.08203,2.11719 0.09375,2.46875 0.17578,0.43945 0.62305,0.79297 1.0625,0.96875 0.334498,0.08362 11.06586,0.12175 21.21875,0.125 0.537634,7.1e-5 1.107429,1.7e-5 1.5625,0 0.02229,-2e-6 0.03991,3e-6 0.0625,0 10.152891,-0.0033 20.884253,-0.04138 21.21875,-0.125 0.43945,-0.17578 0.88672,-0.5293 1.0625,-0.96875 0.17578,-0.35156 0.18164,-1.85352 0.09375,-2.46875 -0.08789,-0.61523 -0.53516,-1.13672 -1.0625,-1.3125 -0.21104,-0.0422 -10.962223,-0.05841 -21.3125,-0.0625 -0.02278,6e-6 -0.04005,-5e-6 -0.0625,0 -0.509282,-6.5e-5 -0.961155,1.16e-4 -1.5,0 -0.02245,-5e-6 -0.03972,6e-6 -0.0625,0 z m -27.46875,6.5 c -0.43945,0.08789 -0.974613,0.68555 -1.0625,1.125 -0.08789,0.35156 -0.08789,0.70316 0,5.625 l 0,3.78125 C 36.799123,90 54.043803,90 75,90 l 0,-3.78125 c 0.08789,-4.92184 0.08789,-5.27344 0,-5.625 -0.08789,-0.43945 -0.62305,-1.03711 -1.0625,-1.125 -19.441326,-0.126194 -37.721504,-0.08214 -56.5625,0 z"
       transform="matrix(11.377859,0,0,-11.377859,0,1024.0073)"
       id="path3050"
       inkscape:connector-curvature="0"
       sodipodi:nodetypes="cccccccscccccscscscccccccccscscscccccssccccccccccsccccsccccccccccccsccccccccccscccccccscccscccccccccc" />
  </g>
</svg>
